<mxfile host="app.diagrams.net" agent="Mozilla/5.0 (Macintosh; Intel Mac OS X 10_15_7) AppleWebKit/605.1.15 (KHTML, like Gecko) Version/18.1.1 Safari/605.1.15" version="26.0.1">
  <diagram name="UML Use Case Diagram" id="DFtjQoSNepYopq6LZy2u">
    <mxGraphModel dx="781" dy="556" grid="1" gridSize="10" guides="1" tooltips="1" connect="1" arrows="1" fold="1" page="1" pageScale="1" pageWidth="850" pageHeight="1100" math="0" shadow="0">
      <root>
        <mxCell id="0" />
        <mxCell id="1" parent="0" />
        <mxCell id="B_kp_8WOismVBOZEocM9-1" value="User" style="shape=umlActor;verticalLabelPosition=bottom;verticalAlign=top;html=1;" parent="1" vertex="1">
          <mxGeometry x="230" y="150" width="30" height="60" as="geometry" />
        </mxCell>
        <mxCell id="B_kp_8WOismVBOZEocM9-2" value="Subscribe Use Case" style="shape=ellipse;whiteSpace=wrap;html=1;aspect=fixed;" parent="1" vertex="1">
          <mxGeometry x="440" y="30" width="160" height="80" as="geometry" />
        </mxCell>
        <mxCell id="B_kp_8WOismVBOZEocM9-3" value="Share Lists Use Case" style="shape=ellipse;whiteSpace=wrap;html=1;aspect=fixed;" parent="1" vertex="1">
          <mxGeometry x="440" y="260" width="160" height="80" as="geometry" />
        </mxCell>
        <mxCell id="B_kp_8WOismVBOZEocM9-4" value="NotificationBloc" style="shape=umlComponent;whiteSpace=wrap;html=1;rounded=1;" parent="1" vertex="1">
          <mxGeometry x="660" y="40" width="150" height="60" as="geometry" />
        </mxCell>
        <mxCell id="B_kp_8WOismVBOZEocM9-5" value="SocialBloc" style="shape=umlComponent;whiteSpace=wrap;html=1;rounded=1;" parent="1" vertex="1">
          <mxGeometry x="660" y="270" width="150" height="60" as="geometry" />
        </mxCell>
        <mxCell id="B_kp_8WOismVBOZEocM9-6" style="rounded=0;orthogonalLoop=1;jettySize=auto;loopDirection=0;endArrow=open;strokeColor=#000000;" parent="1" source="B_kp_8WOismVBOZEocM9-1" target="B_kp_8WOismVBOZEocM9-2" edge="1">
          <mxGeometry relative="1" as="geometry">
            <mxPoint x="245" y="120" as="targetPoint" />
          </mxGeometry>
        </mxCell>
        <mxCell id="B_kp_8WOismVBOZEocM9-7" style="rounded=0;orthogonalLoop=1;jettySize=auto;loopDirection=0;endArrow=open;strokeColor=#000000;" parent="1" source="B_kp_8WOismVBOZEocM9-1" target="B_kp_8WOismVBOZEocM9-3" edge="1">
          <mxGeometry relative="1" as="geometry">
            <mxPoint x="245" y="120" as="targetPoint" />
          </mxGeometry>
        </mxCell>
        <mxCell id="B_kp_8WOismVBOZEocM9-8" style="edgeStyle=orthogonalEdgeStyle;rounded=0;orthogonalLoop=1;jettySize=auto;loopDirection=0;endArrow=open;strokeColor=#000000;" parent="1" source="B_kp_8WOismVBOZEocM9-2" target="B_kp_8WOismVBOZEocM9-4" edge="1">
          <mxGeometry relative="1" as="geometry">
            <mxPoint x="520" y="110" as="targetPoint" />
          </mxGeometry>
        </mxCell>
        <mxCell id="B_kp_8WOismVBOZEocM9-9" style="edgeStyle=orthogonalEdgeStyle;rounded=0;orthogonalLoop=1;jettySize=auto;loopDirection=0;endArrow=open;strokeColor=#000000;" parent="1" source="B_kp_8WOismVBOZEocM9-3" target="B_kp_8WOismVBOZEocM9-5" edge="1">
          <mxGeometry relative="1" as="geometry">
            <mxPoint x="410" y="270" as="targetPoint" />
          </mxGeometry>
        </mxCell>
      </root>
    </mxGraphModel>
  </diagram>
</mxfile>
